<svg width="54" height="40" viewBox="0 0 54 40" fill="none" xmlns="http://www.w3.org/2000/svg">
<path d="M37.9339 33.4505C43.3702 33.4505 47.7771 29.0435 47.7771 23.6072C47.7771 18.1709 43.3702 13.7639 37.9339 13.7639C32.4976 13.7639 28.0906 18.1709 28.0906 23.6072C28.0906 29.0435 32.4976 33.4505 37.9339 33.4505Z" fill="#2F2E41"/>
<path d="M41.735 36.214L44.6779 35.6813L43.7234 30.4086L40.7805 30.9414L41.735 36.214Z" fill="#2F2E41"/>
<path d="M35.8502 37.2799L38.7931 36.7472L37.8386 31.4746L34.8957 32.0073L35.8502 37.2799Z" fill="#2F2E41"/>
<path d="M37.413 38.3893C38.4633 37.4998 39.0444 36.4594 38.7108 36.0655C38.3772 35.6716 37.2553 36.0734 36.205 36.9629C35.1546 37.8525 34.5735 38.8929 34.9071 39.2868C35.2407 39.6807 36.3626 39.2789 37.413 38.3893Z" fill="#2F2E41"/>
<path d="M43.1754 37.3461C44.2258 36.4566 44.8068 35.4162 44.4733 35.0223C44.1397 34.6284 43.0178 35.0302 41.9674 35.9198C40.917 36.8093 40.336 37.8497 40.6696 38.2436C41.0031 38.6375 42.125 38.2357 43.1754 37.3461Z" fill="#2F2E41"/>
<path d="M37.2447 24.5637C39.1027 24.5637 40.6089 23.0575 40.6089 21.1995C40.6089 19.3415 39.1027 17.8354 37.2447 17.8354C35.3867 17.8354 33.8806 19.3415 33.8806 21.1995C33.8806 23.0575 35.3867 24.5637 37.2447 24.5637Z" fill="white"/>
<path d="M35.8622 21.1153C36.4816 21.1153 36.9837 20.6132 36.9837 19.9938C36.9837 19.3744 36.4816 18.8723 35.8622 18.8723C35.2428 18.8723 34.7407 19.3744 34.7407 19.9938C34.7407 20.6132 35.2428 21.1153 35.8622 21.1153Z" fill="#3F3D56"/>
<path d="M45.6988 12.8988C45.8469 9.25466 42.7061 6.16806 38.6838 6.00468C34.6615 5.84129 31.2808 8.66299 31.1328 12.3071C30.9848 15.9513 33.7808 16.7792 37.8031 16.9426C41.8254 17.106 45.5508 16.5429 45.6988 12.8988Z" fill="#9381FF"/>
<path d="M33.6422 22.9136C33.8328 22.0818 31.8396 20.9153 29.1901 20.308C26.5407 19.7007 24.2384 19.8826 24.0477 20.7144C23.8571 21.5461 25.8503 22.7127 28.4997 23.32C31.1492 23.9273 33.4515 23.7453 33.6422 22.9136Z" fill="#2F2E41"/>
<path d="M52.9642 26.1268C53.1549 25.295 51.1616 24.1285 48.5122 23.5212C45.8627 22.9139 43.5604 23.0958 43.3697 23.9276C43.1791 24.7593 45.1723 25.9259 47.8218 26.5332C50.4712 27.1405 52.7736 26.9585 52.9642 26.1268Z" fill="#2F2E41"/>
<path d="M40.6378 27.4865C40.6903 27.7763 40.6852 28.0737 40.6227 28.3615C40.5603 28.6494 40.4418 28.9221 40.2739 29.1642C40.1061 29.4062 39.8922 29.6129 39.6445 29.7723C39.3968 29.9317 39.1201 30.0407 38.8303 30.0932C38.5404 30.1456 38.2431 30.1405 37.9552 30.0781C37.6673 30.0156 37.3946 29.8971 37.1525 29.7292C36.9105 29.5614 36.7039 29.3475 36.5445 29.0998C36.3851 28.8521 36.276 28.5754 36.2235 28.2856C36.0029 27.0666 36.9453 26.6353 38.1643 26.4146C39.3833 26.1939 40.4172 26.2675 40.6378 27.4865Z" fill="white"/>
<path d="M13.8304 12.3348L25.1689 21.0567" stroke="#3F3D56" stroke-width="2" stroke-miterlimit="10"/>
<path d="M8.4727 16.9454C13.152 16.9454 16.9454 13.152 16.9454 8.4727C16.9454 3.79336 13.152 0 8.4727 0C3.79336 0 0 3.79336 0 8.4727C0 13.152 3.79336 16.9454 8.4727 16.9454Z" fill="#FF6584"/>
</svg>
